<?xml version="1.0" standalone="no"?><!DOCTYPE svg PUBLIC "-//W3C//DTD SVG 1.1//EN" "http://www.w3.org/Graphics/SVG/1.1/DTD/svg11.dtd"><svg class="icon" height="512" viewBox="0 0 1024 1024" version="1.1" xmlns="http://www.w3.org/2000/svg"><path d="M513.024 29.696C246.784 29.696 29.696 246.784 29.696 513.024c0 267.264 216.064 483.328 483.328 483.328 267.264 0 483.328-216.064 483.328-483.328C997.376 246.784 780.288 29.696 513.024 29.696zM803.84 900.096c-14.336-147.456-139.264-263.168-289.792-263.168-150.528 0-275.456 115.712-289.792 263.168-16.384-12.288-31.744-24.576-46.08-38.912 24.576-122.88 114.688-221.184 232.448-259.072-55.296-34.816-92.16-96.256-92.16-165.888 0-107.52 88.064-195.584 195.584-195.584S709.632 327.68 709.632 435.2c0 69.632-36.864 131.072-92.16 165.888 117.76 36.864 207.872 136.192 232.448 259.072C834.56 874.496 819.2 887.808 803.84 900.096z" fill="#3BA8E7" /><path d="M515.072 580.608c79.872 0 144.384-64.512 144.384-144.384 0-79.872-64.512-144.384-144.384-144.384-79.872 0-144.384 64.512-144.384 144.384C370.688 515.072 435.2 580.608 515.072 580.608z" fill="#3BA8E7" /></svg>